<svg width="18" height="18" viewBox="0 0 18 18" fill="none" xmlns="http://www.w3.org/2000/svg">
<g clip-path="url(#clip0_7_16854)">
<path d="M18 16.5938C18 17.3704 17.3704 18 16.5938 18H1.40625C0.629578 18 0 17.3704 0 16.5938V1.40625C0 0.629578 0.629578 0 1.40625 0H16.5938C17.3704 0 18 0.629578 18 1.40625V16.5938Z" fill="#FFE812"/>
<path d="M9 1C4.0294 1 0 4.17709 0 8.09615C0 10.6299 1.68456 12.8532 4.21858 14.1086C4.08072 14.584 3.33268 17.1672 3.30291 17.3701C3.30291 17.3701 3.285 17.5226 3.38374 17.5808C3.48248 17.6389 3.59862 17.5937 3.59862 17.5937C3.88177 17.5542 6.88214 15.4466 7.40146 15.0807C7.92026 15.1541 8.45446 15.1923 9 15.1923C13.9706 15.1923 18 12.0153 18 8.09615C18 4.17709 13.9706 1 9 1Z" fill="black"/>
<path d="M4.024 10.5729C3.73765 10.5729 3.50477 10.3505 3.50477 10.0771V6.99241H2.6946C2.41361 6.99241 2.18506 6.7643 2.18506 6.484C2.18506 6.2037 2.41369 5.97559 2.6946 5.97559H5.3534C5.6344 5.97559 5.86294 6.2037 5.86294 6.484C5.86294 6.7643 5.63431 6.99241 5.3534 6.99241H4.54323V10.0771C4.54323 10.3505 4.31036 10.5729 4.024 10.5729ZM8.57696 10.5662C8.36044 10.5662 8.19481 10.4783 8.14488 10.3369L7.88777 9.66377L6.30446 9.66368L6.04718 10.3372C5.99742 10.4784 5.83188 10.5662 5.61536 10.5662C5.50147 10.5663 5.38889 10.5419 5.2853 10.4945C5.14216 10.4285 5.00457 10.247 5.16224 9.75723L6.40424 6.48815C6.49173 6.23953 6.75749 5.98337 7.09568 5.97567C7.43483 5.98329 7.70059 6.23953 7.78825 6.48867L9.02973 9.75628C9.18775 10.2471 9.05016 10.4288 8.90702 10.4946C8.80341 10.5419 8.69084 10.5663 8.57696 10.5662C8.57696 10.5662 8.57688 10.5662 8.57696 10.5662ZM7.61474 8.74404L7.09612 7.27072L6.57749 8.74404H7.61474ZM9.86535 10.4972C9.59093 10.4972 9.36775 10.2836 9.36775 10.0213V6.49482C9.36775 6.20846 9.60556 5.97559 9.8978 5.97559C10.19 5.97559 10.4278 6.20846 10.4278 6.49482V9.5453H11.5312C11.8056 9.5453 12.0288 9.75887 12.0288 10.0213C12.0288 10.2836 11.8056 10.4972 11.5312 10.4972H9.86535ZM12.75 10.5662C12.4637 10.5662 12.2308 10.3333 12.2308 10.047V6.49482C12.2308 6.20846 12.4637 5.97559 12.75 5.97559C13.0364 5.97559 13.2693 6.20846 13.2693 6.49482V7.61082L14.7179 6.16216C14.7924 6.08765 14.8948 6.04663 15.0059 6.04663C15.1355 6.04663 15.2657 6.10254 15.3632 6.19998C15.4542 6.29085 15.5084 6.40776 15.5159 6.52917C15.5234 6.65162 15.4826 6.76387 15.4013 6.8453L14.2181 8.02836L15.4961 9.72158C15.5374 9.7759 15.5675 9.83787 15.5846 9.90391C15.6017 9.96994 15.6055 10.0387 15.5958 10.1062C15.5866 10.1738 15.564 10.2389 15.5294 10.2976C15.4948 10.3564 15.4489 10.4078 15.3944 10.4487C15.3046 10.5169 15.1948 10.5537 15.0821 10.5535C15.0016 10.5538 14.9222 10.5354 14.8502 10.4995C14.7781 10.4637 14.7155 10.4115 14.6673 10.3471L13.4496 8.73365L13.2694 8.91383V10.0467C13.2693 10.1844 13.2145 10.3164 13.1171 10.4138C13.0198 10.5112 12.8877 10.566 12.75 10.5662Z" fill="#FFE812"/>
</g>
<defs>
<clipPath id="clip0_7_16854">
<rect width="18" height="18" fill="white"/>
</clipPath>
</defs>
</svg>
