<svg width="80" height="22" viewBox="0 0 80 22" fill="none" xmlns="http://www.w3.org/2000/svg">
<g clip-path="url(#clip0_7_16864)">
<path d="M9.78804 9.31603C10.5184 9.66197 11.1586 10.1728 11.6581 10.8083C12.0927 11.3406 12.3835 11.9755 12.5027 12.6523C12.622 13.3292 12.5656 14.0253 12.3391 14.6741C12.1154 15.3401 11.7462 15.9478 11.2581 16.4529C10.6898 17.0182 10.0057 17.4536 9.25297 17.7289C8.36236 18.0741 7.41373 18.2448 6.4587 18.2318C5.24343 18.2157 4.04769 17.9236 2.96182 17.3775C1.81534 16.8328 0.80381 16.0406 0 15.058L2.4916 12.8953C3.11818 13.6601 3.92395 14.2581 4.83727 14.6363C5.5859 14.9454 6.39747 15.0715 7.20456 15.0039C7.76553 14.9872 8.299 14.7571 8.69628 14.3605C8.85795 14.202 8.96578 13.9967 9.00457 13.7736C9.04336 13.5505 9.01114 13.3208 8.91247 13.117C8.62268 12.5591 8.13204 12.132 7.53966 11.9221L4.17249 10.4028C3.0195 9.97198 2.01285 9.22188 1.27012 8.24009C0.957489 7.81492 0.741356 7.32663 0.636806 6.80929C0.532255 6.29195 0.541805 5.75802 0.664787 5.24475C0.778025 4.63342 1.01656 4.05217 1.36538 3.53759C1.7142 3.02301 2.16574 2.58626 2.69158 2.25482C3.77662 1.56012 5.04082 1.19744 6.32899 1.21132C7.50326 1.2025 8.66346 1.4672 9.71778 1.98449C10.7255 2.46985 11.6274 3.14971 12.3715 3.98498L9.88533 6.14768C9.42972 5.6492 8.91204 5.21128 8.34497 4.84465C7.8826 4.52677 7.35093 4.3241 6.79434 4.25356C6.23774 4.18302 5.67236 4.24665 5.14534 4.43915C4.43191 4.69327 4.06439 5.08796 4.00494 5.62323C3.94549 6.15849 4.23194 6.54237 4.81025 6.94788C5.14701 7.14849 5.49533 7.32903 5.85337 7.48855L7.19375 8.12114L8.62602 8.76995C9.15028 9.00785 9.53402 9.19168 9.78804 9.31603Z" fill="#175CD3"/>
<path d="M17.8468 13.2519C17.7884 13.6451 17.8447 14.0469 18.0089 14.4089C18.1518 14.7106 18.4024 14.9479 18.7115 15.0739C19.0557 15.2065 19.4243 15.2636 19.7925 15.2415C20.2667 15.2167 20.7355 15.1294 21.1869 14.982V17.9179C20.0379 18.246 18.826 18.2868 17.6576 18.0368C16.779 17.7939 16.002 17.2745 15.4416 16.5554C14.8813 15.8151 14.5931 14.9043 14.6255 13.9764V2.08154H17.8684V5.09309H21.2301V7.91H17.8468V13.2519Z" fill="#175CD3"/>
<path d="M26.4456 7.51545V12.2085C26.4541 12.9461 26.7527 13.6508 27.2767 14.1699C27.8006 14.689 28.5079 14.9808 29.2453 14.9821C29.6136 14.9873 29.9791 14.917 30.3192 14.7757C30.6594 14.6343 30.9671 14.4249 31.2234 14.1603C31.4862 13.9085 31.6943 13.6053 31.8347 13.2694C31.9751 12.9336 32.0449 12.5725 32.0396 12.2085V5.09863H35.2824V12.2085C35.2977 13.5348 34.8591 14.8264 34.0393 15.8689C33.2438 16.9217 32.1227 17.6821 30.8505 18.0315C29.6954 18.345 28.4731 18.3067 27.3398 17.9214C26.2066 17.5362 25.2141 16.8215 24.4891 15.8689C23.6694 14.8264 23.2307 13.5348 23.246 12.2085V5.09863H26.4889L26.4456 7.51545Z" fill="#175CD3"/>
<path d="M37.1094 11.565C37.1073 10.6896 37.278 9.82248 37.6119 9.01336C37.9458 8.20423 38.4362 7.46907 39.0549 6.8501C39.6736 6.23114 40.4085 5.74057 41.2174 5.40657C42.0262 5.07258 42.893 4.90175 43.7681 4.90389C44.1664 4.90404 44.5641 4.93659 44.9571 5.00121L47.2055 6.30423V1.11377H50.4484V18.0152H47.2055V16.8311L44.9571 18.1071C44.566 18.1884 44.1676 18.2301 43.7681 18.2315C42.0029 18.2258 40.3117 17.5214 39.0641 16.2723C37.8164 15.0231 37.1137 13.3308 37.1094 11.565ZM41.3413 9.13735C40.8617 9.61633 40.535 10.227 40.4028 10.892C40.2706 11.557 40.3388 12.2463 40.5988 12.8724C40.8588 13.4985 41.2988 14.0333 41.863 14.4089C42.4273 14.7845 43.0903 14.984 43.7681 14.982C44.2195 14.9884 44.6676 14.9035 45.0855 14.7326C45.5034 14.5617 45.8826 14.3081 46.2002 13.9872C46.5212 13.6685 46.7759 13.2895 46.9497 12.8719C47.1236 12.4544 47.2131 12.0065 47.2131 11.5542C47.2131 11.1018 47.1236 10.654 46.9497 10.2364C46.7759 9.8188 46.5212 9.43977 46.2002 9.12113C45.881 8.80137 45.5018 8.54769 45.0845 8.37462C44.6672 8.20154 44.2198 8.11245 43.7681 8.11245C43.3163 8.11245 42.869 8.20154 42.4516 8.37462C42.0343 8.54769 41.6552 8.80137 41.3359 9.12113L41.3413 9.13735Z" fill="#175CD3"/>
<path d="M64.8572 5.09863L60.6198 16.8313C60.555 17.0043 60.4685 17.2422 60.355 17.5395C60.2415 17.8369 60.1496 18.1181 60.0631 18.3722C59.9767 18.6263 59.8848 18.8588 59.7875 19.0805C59.5005 19.9391 58.978 20.6998 58.2796 21.2756C57.5729 21.7788 56.7195 22.0335 55.8528 22.0001H52.2046V18.7561H55.4474C55.7568 18.7862 56.0661 18.6973 56.3122 18.5073C56.523 18.2617 56.6796 17.9743 56.7716 17.6639L52.2262 5.12566H55.6636L55.7555 5.40682L56.9392 8.65086L58.5606 13.1547L60.6685 7.29918L61.4522 5.13648L64.8572 5.09863Z" fill="#175CD3"/>
<path d="M66.6138 5.09863H69.8566V18.0153H66.6138V5.09863Z" fill="#175CD3"/>
<path d="M75.7586 13.2519C75.7019 13.6456 75.76 14.0474 75.9261 14.4089C76.0655 14.7112 76.3148 14.9491 76.6233 15.0739C76.9675 15.2065 77.3361 15.2637 77.7043 15.2415C78.1802 15.2163 78.6508 15.129 79.1041 14.982V17.9179C77.9533 18.246 76.7396 18.2869 75.5694 18.0368C74.6909 17.7939 73.9138 17.2745 73.3534 16.5554C72.7901 15.8196 72.4946 14.9137 72.5157 13.9872V2.08154H75.7586V5.09309H79.1257V7.91H75.7586V13.2519Z" fill="#175CD3"/>
<path d="M67.6786 0H68.7596V0.686654L68.5866 1.39494L69.0839 0.897517L69.7054 0.535266L69.9648 1.01647L70.2405 1.48145L69.6351 1.82748L68.9487 2.01671L69.6351 2.20595L70.2405 2.57361L69.9648 3.03859L69.7054 3.50357L69.0893 3.16294L68.592 2.66012L68.765 3.35218V4.06046H67.684V3.34677L67.857 2.65471L67.3597 3.15753L66.7544 3.50357L66.4788 3.03859L66.2031 2.57361L66.8031 2.20595L67.4949 2.01671L66.8031 1.82748L66.2031 1.48145L66.4788 1.00025L66.7544 0.535266L67.3597 0.897517L67.857 1.39494L67.684 0.686654L67.6786 0Z" fill="#175CD3"/>
</g>
<defs>
<clipPath id="clip0_7_16864">
<rect width="79.1205" height="22" fill="white"/>
</clipPath>
</defs>
</svg>
